<mxfile host="Electron" modified="2024-12-09T09:51:58.059Z" agent="Mozilla/5.0 (Macintosh; Intel Mac OS X 10_15_7) AppleWebKit/537.36 (KHTML, like Gecko) draw.io/22.1.21 Chrome/120.0.6099.109 Electron/28.1.0 Safari/537.36" etag="NevdAA7dzYEzZ0PEuUqR" version="22.1.21" type="device">
  <diagram name="第 1 页" id="6HqXooCNs9hSZixjxbYp">
    <mxGraphModel dx="2449" dy="1220" grid="0" gridSize="10" guides="1" tooltips="1" connect="1" arrows="1" fold="1" page="0" pageScale="1" pageWidth="827" pageHeight="1169" math="0" shadow="0">
      <root>
        <mxCell id="0" />
        <mxCell id="1" parent="0" />
        <mxCell id="fiM3ZYcaST_rQ8-QlCLc-1" value="4" style="rounded=0;whiteSpace=wrap;html=1;fontSize=30;" vertex="1" parent="1">
          <mxGeometry x="116" y="328" width="70" height="70" as="geometry" />
        </mxCell>
        <mxCell id="fiM3ZYcaST_rQ8-QlCLc-2" value="1" style="rounded=0;whiteSpace=wrap;html=1;fontSize=30;" vertex="1" parent="1">
          <mxGeometry x="214" y="328" width="70" height="70" as="geometry" />
        </mxCell>
        <mxCell id="fiM3ZYcaST_rQ8-QlCLc-3" value="5" style="rounded=0;whiteSpace=wrap;html=1;fontSize=30;" vertex="1" parent="1">
          <mxGeometry x="312" y="328" width="70" height="70" as="geometry" />
        </mxCell>
        <mxCell id="fiM3ZYcaST_rQ8-QlCLc-4" value="2" style="rounded=0;whiteSpace=wrap;html=1;fontSize=30;" vertex="1" parent="1">
          <mxGeometry x="410" y="328" width="70" height="70" as="geometry" />
        </mxCell>
        <mxCell id="fiM3ZYcaST_rQ8-QlCLc-5" value="1" style="rounded=0;whiteSpace=wrap;html=1;fontSize=30;" vertex="1" parent="1">
          <mxGeometry x="508" y="328" width="70" height="70" as="geometry" />
        </mxCell>
        <mxCell id="fiM3ZYcaST_rQ8-QlCLc-6" value="3" style="rounded=0;whiteSpace=wrap;html=1;fontSize=30;" vertex="1" parent="1">
          <mxGeometry x="606" y="330" width="70" height="70" as="geometry" />
        </mxCell>
        <mxCell id="fiM3ZYcaST_rQ8-QlCLc-7" value="最多携带3份" style="text;html=1;align=center;verticalAlign=middle;resizable=0;points=[];autosize=1;strokeColor=none;fillColor=none;fontSize=24;" vertex="1" parent="1">
          <mxGeometry x="116" y="263" width="151" height="41" as="geometry" />
        </mxCell>
        <mxCell id="fiM3ZYcaST_rQ8-QlCLc-11" value="0" style="rounded=0;whiteSpace=wrap;html=1;fontSize=30;fillColor=#f8cecc;strokeColor=#b85450;" vertex="1" parent="1">
          <mxGeometry x="116" y="456" width="70" height="70" as="geometry" />
        </mxCell>
        <mxCell id="fiM3ZYcaST_rQ8-QlCLc-12" value="x" style="rounded=0;whiteSpace=wrap;html=1;fontSize=30;" vertex="1" parent="1">
          <mxGeometry x="214" y="456" width="70" height="70" as="geometry" />
        </mxCell>
        <mxCell id="fiM3ZYcaST_rQ8-QlCLc-13" value="x" style="rounded=0;whiteSpace=wrap;html=1;fontSize=30;" vertex="1" parent="1">
          <mxGeometry x="312" y="456" width="70" height="70" as="geometry" />
        </mxCell>
        <mxCell id="fiM3ZYcaST_rQ8-QlCLc-14" value="x" style="rounded=0;whiteSpace=wrap;html=1;fontSize=30;" vertex="1" parent="1">
          <mxGeometry x="410" y="456" width="70" height="70" as="geometry" />
        </mxCell>
        <mxCell id="fiM3ZYcaST_rQ8-QlCLc-15" value="x" style="rounded=0;whiteSpace=wrap;html=1;fontSize=30;" vertex="1" parent="1">
          <mxGeometry x="508" y="456" width="70" height="70" as="geometry" />
        </mxCell>
        <mxCell id="fiM3ZYcaST_rQ8-QlCLc-16" value="x" style="rounded=0;whiteSpace=wrap;html=1;fontSize=30;" vertex="1" parent="1">
          <mxGeometry x="606" y="458" width="70" height="70" as="geometry" />
        </mxCell>
        <mxCell id="fiM3ZYcaST_rQ8-QlCLc-17" value="0" style="rounded=0;whiteSpace=wrap;html=1;fontSize=30;fillColor=#dae8fc;strokeColor=#6c8ebf;" vertex="1" parent="1">
          <mxGeometry x="116" y="573" width="70" height="70" as="geometry" />
        </mxCell>
        <mxCell id="fiM3ZYcaST_rQ8-QlCLc-18" value="4" style="rounded=0;whiteSpace=wrap;html=1;fontSize=30;fillColor=#f8cecc;strokeColor=#b85450;" vertex="1" parent="1">
          <mxGeometry x="214" y="573" width="70" height="70" as="geometry" />
        </mxCell>
        <mxCell id="fiM3ZYcaST_rQ8-QlCLc-19" value="x" style="rounded=0;whiteSpace=wrap;html=1;fontSize=30;" vertex="1" parent="1">
          <mxGeometry x="312" y="573" width="70" height="70" as="geometry" />
        </mxCell>
        <mxCell id="fiM3ZYcaST_rQ8-QlCLc-20" value="x" style="rounded=0;whiteSpace=wrap;html=1;fontSize=30;" vertex="1" parent="1">
          <mxGeometry x="410" y="573" width="70" height="70" as="geometry" />
        </mxCell>
        <mxCell id="fiM3ZYcaST_rQ8-QlCLc-21" value="x" style="rounded=0;whiteSpace=wrap;html=1;fontSize=30;" vertex="1" parent="1">
          <mxGeometry x="508" y="573" width="70" height="70" as="geometry" />
        </mxCell>
        <mxCell id="fiM3ZYcaST_rQ8-QlCLc-22" value="x" style="rounded=0;whiteSpace=wrap;html=1;fontSize=30;" vertex="1" parent="1">
          <mxGeometry x="606" y="575" width="70" height="70" as="geometry" />
        </mxCell>
        <mxCell id="fiM3ZYcaST_rQ8-QlCLc-23" value="startIndex = 0" style="text;html=1;align=center;verticalAlign=middle;resizable=0;points=[];autosize=1;strokeColor=none;fillColor=none;fontSize=24;" vertex="1" parent="1">
          <mxGeometry x="799" y="575" width="164" height="41" as="geometry" />
        </mxCell>
        <mxCell id="fiM3ZYcaST_rQ8-QlCLc-24" value="cost = 4" style="text;html=1;align=center;verticalAlign=middle;resizable=0;points=[];autosize=1;strokeColor=none;fillColor=none;fontSize=24;" vertex="1" parent="1">
          <mxGeometry x="825" y="616" width="103" height="41" as="geometry" />
        </mxCell>
        <mxCell id="fiM3ZYcaST_rQ8-QlCLc-25" value="第0天" style="text;html=1;align=center;verticalAlign=middle;resizable=0;points=[];autosize=1;strokeColor=none;fillColor=none;fontSize=24;" vertex="1" parent="1">
          <mxGeometry x="-8" y="470.5" width="79" height="41" as="geometry" />
        </mxCell>
        <mxCell id="fiM3ZYcaST_rQ8-QlCLc-27" value="第1天" style="text;html=1;align=center;verticalAlign=middle;resizable=0;points=[];autosize=1;strokeColor=none;fillColor=none;fontSize=24;" vertex="1" parent="1">
          <mxGeometry x="-8" y="587.5" width="79" height="41" as="geometry" />
        </mxCell>
        <mxCell id="fiM3ZYcaST_rQ8-QlCLc-28" value="[4]" style="text;html=1;align=center;verticalAlign=middle;resizable=0;points=[];autosize=1;strokeColor=none;fillColor=none;fontSize=24;" vertex="1" parent="1">
          <mxGeometry x="983" y="575" width="45" height="41" as="geometry" />
        </mxCell>
        <mxCell id="fiM3ZYcaST_rQ8-QlCLc-29" value="0" style="rounded=0;whiteSpace=wrap;html=1;fontSize=30;fillColor=#dae8fc;strokeColor=#6c8ebf;" vertex="1" parent="1">
          <mxGeometry x="116" y="681" width="70" height="70" as="geometry" />
        </mxCell>
        <mxCell id="fiM3ZYcaST_rQ8-QlCLc-30" value="4" style="rounded=0;whiteSpace=wrap;html=1;fontSize=30;fillColor=#dae8fc;strokeColor=#6c8ebf;" vertex="1" parent="1">
          <mxGeometry x="214" y="681" width="70" height="70" as="geometry" />
        </mxCell>
        <mxCell id="fiM3ZYcaST_rQ8-QlCLc-31" value="5" style="rounded=0;whiteSpace=wrap;html=1;fontSize=30;fillColor=#f8cecc;strokeColor=#b85450;" vertex="1" parent="1">
          <mxGeometry x="312" y="681" width="70" height="70" as="geometry" />
        </mxCell>
        <mxCell id="fiM3ZYcaST_rQ8-QlCLc-32" value="x" style="rounded=0;whiteSpace=wrap;html=1;fontSize=30;" vertex="1" parent="1">
          <mxGeometry x="410" y="681" width="70" height="70" as="geometry" />
        </mxCell>
        <mxCell id="fiM3ZYcaST_rQ8-QlCLc-33" value="x" style="rounded=0;whiteSpace=wrap;html=1;fontSize=30;" vertex="1" parent="1">
          <mxGeometry x="508" y="681" width="70" height="70" as="geometry" />
        </mxCell>
        <mxCell id="fiM3ZYcaST_rQ8-QlCLc-34" value="x" style="rounded=0;whiteSpace=wrap;html=1;fontSize=30;" vertex="1" parent="1">
          <mxGeometry x="606" y="683" width="70" height="70" as="geometry" />
        </mxCell>
        <mxCell id="fiM3ZYcaST_rQ8-QlCLc-35" value="startIndex = 0" style="text;html=1;align=center;verticalAlign=middle;resizable=0;points=[];autosize=1;strokeColor=none;fillColor=none;fontSize=24;" vertex="1" parent="1">
          <mxGeometry x="799" y="683" width="164" height="41" as="geometry" />
        </mxCell>
        <mxCell id="fiM3ZYcaST_rQ8-QlCLc-36" value="cost = 1" style="text;html=1;align=center;verticalAlign=middle;resizable=0;points=[];autosize=1;strokeColor=none;fillColor=none;fontSize=24;" vertex="1" parent="1">
          <mxGeometry x="825" y="719" width="103" height="41" as="geometry" />
        </mxCell>
        <mxCell id="fiM3ZYcaST_rQ8-QlCLc-37" value="第2天" style="text;html=1;align=center;verticalAlign=middle;resizable=0;points=[];autosize=1;strokeColor=none;fillColor=none;fontSize=24;" vertex="1" parent="1">
          <mxGeometry x="-8" y="695.5" width="79" height="41" as="geometry" />
        </mxCell>
        <mxCell id="fiM3ZYcaST_rQ8-QlCLc-38" value="[4,1]" style="text;html=1;align=center;verticalAlign=middle;resizable=0;points=[];autosize=1;strokeColor=none;fillColor=none;fontSize=24;" vertex="1" parent="1">
          <mxGeometry x="973" y="683" width="65" height="41" as="geometry" />
        </mxCell>
        <mxCell id="fiM3ZYcaST_rQ8-QlCLc-39" value="0" style="rounded=0;whiteSpace=wrap;html=1;fontSize=30;fillColor=#dae8fc;strokeColor=#6c8ebf;" vertex="1" parent="1">
          <mxGeometry x="116" y="805" width="70" height="70" as="geometry" />
        </mxCell>
        <mxCell id="fiM3ZYcaST_rQ8-QlCLc-40" value="4" style="rounded=0;whiteSpace=wrap;html=1;fontSize=30;fillColor=#dae8fc;strokeColor=#6c8ebf;" vertex="1" parent="1">
          <mxGeometry x="214" y="805" width="70" height="70" as="geometry" />
        </mxCell>
        <mxCell id="fiM3ZYcaST_rQ8-QlCLc-41" value="5" style="rounded=0;whiteSpace=wrap;html=1;fontSize=30;fillColor=#dae8fc;strokeColor=#6c8ebf;" vertex="1" parent="1">
          <mxGeometry x="312" y="805" width="70" height="70" as="geometry" />
        </mxCell>
        <mxCell id="fiM3ZYcaST_rQ8-QlCLc-42" value="6" style="rounded=0;whiteSpace=wrap;html=1;fontSize=30;fillColor=#f8cecc;strokeColor=#b85450;" vertex="1" parent="1">
          <mxGeometry x="410" y="805" width="70" height="70" as="geometry" />
        </mxCell>
        <mxCell id="fiM3ZYcaST_rQ8-QlCLc-43" value="x" style="rounded=0;whiteSpace=wrap;html=1;fontSize=30;" vertex="1" parent="1">
          <mxGeometry x="508" y="805" width="70" height="70" as="geometry" />
        </mxCell>
        <mxCell id="fiM3ZYcaST_rQ8-QlCLc-44" value="x" style="rounded=0;whiteSpace=wrap;html=1;fontSize=30;" vertex="1" parent="1">
          <mxGeometry x="606" y="807" width="70" height="70" as="geometry" />
        </mxCell>
        <mxCell id="fiM3ZYcaST_rQ8-QlCLc-45" value="startIndex = 0" style="text;html=1;align=center;verticalAlign=middle;resizable=0;points=[];autosize=1;strokeColor=none;fillColor=none;fontSize=24;" vertex="1" parent="1">
          <mxGeometry x="799" y="807" width="164" height="41" as="geometry" />
        </mxCell>
        <mxCell id="fiM3ZYcaST_rQ8-QlCLc-46" value="cost = 1" style="text;html=1;align=center;verticalAlign=middle;resizable=0;points=[];autosize=1;strokeColor=none;fillColor=none;fontSize=24;" vertex="1" parent="1">
          <mxGeometry x="825" y="848" width="103" height="41" as="geometry" />
        </mxCell>
        <mxCell id="fiM3ZYcaST_rQ8-QlCLc-47" value="第3天" style="text;html=1;align=center;verticalAlign=middle;resizable=0;points=[];autosize=1;strokeColor=none;fillColor=none;fontSize=24;" vertex="1" parent="1">
          <mxGeometry x="-8" y="819.5" width="79" height="41" as="geometry" />
        </mxCell>
        <mxCell id="fiM3ZYcaST_rQ8-QlCLc-48" value="[4,1,5]" style="text;html=1;align=center;verticalAlign=middle;resizable=0;points=[];autosize=1;strokeColor=none;fillColor=none;fontSize=24;" vertex="1" parent="1">
          <mxGeometry x="977" y="809" width="85" height="41" as="geometry" />
        </mxCell>
        <mxCell id="fiM3ZYcaST_rQ8-QlCLc-49" value="0" style="rounded=0;whiteSpace=wrap;html=1;fontSize=30;fillColor=#dae8fc;strokeColor=#6c8ebf;" vertex="1" parent="1">
          <mxGeometry x="116" y="918" width="70" height="70" as="geometry" />
        </mxCell>
        <mxCell id="fiM3ZYcaST_rQ8-QlCLc-50" value="4" style="rounded=0;whiteSpace=wrap;html=1;fontSize=30;fillColor=#dae8fc;strokeColor=#6c8ebf;" vertex="1" parent="1">
          <mxGeometry x="214" y="918" width="70" height="70" as="geometry" />
        </mxCell>
        <mxCell id="fiM3ZYcaST_rQ8-QlCLc-51" value="5" style="rounded=0;whiteSpace=wrap;html=1;fontSize=30;fillColor=#dae8fc;strokeColor=#6c8ebf;" vertex="1" parent="1">
          <mxGeometry x="312" y="918" width="70" height="70" as="geometry" />
        </mxCell>
        <mxCell id="fiM3ZYcaST_rQ8-QlCLc-52" value="6" style="rounded=0;whiteSpace=wrap;html=1;fontSize=30;fillColor=#dae8fc;strokeColor=#6c8ebf;" vertex="1" parent="1">
          <mxGeometry x="410" y="918" width="70" height="70" as="geometry" />
        </mxCell>
        <mxCell id="fiM3ZYcaST_rQ8-QlCLc-53" value="7" style="rounded=0;whiteSpace=wrap;html=1;fontSize=30;fillColor=#f8cecc;strokeColor=#b85450;" vertex="1" parent="1">
          <mxGeometry x="508" y="918" width="70" height="70" as="geometry" />
        </mxCell>
        <mxCell id="fiM3ZYcaST_rQ8-QlCLc-54" value="x" style="rounded=0;whiteSpace=wrap;html=1;fontSize=30;" vertex="1" parent="1">
          <mxGeometry x="606" y="920" width="70" height="70" as="geometry" />
        </mxCell>
        <mxCell id="fiM3ZYcaST_rQ8-QlCLc-55" value="startIndex = 1" style="text;html=1;align=center;verticalAlign=middle;resizable=0;points=[];autosize=1;strokeColor=none;fillColor=none;fontSize=24;" vertex="1" parent="1">
          <mxGeometry x="799" y="920" width="164" height="41" as="geometry" />
        </mxCell>
        <mxCell id="fiM3ZYcaST_rQ8-QlCLc-56" value="cost = 1" style="text;html=1;align=center;verticalAlign=middle;resizable=0;points=[];autosize=1;strokeColor=none;fillColor=none;fontSize=24;" vertex="1" parent="1">
          <mxGeometry x="825" y="961" width="103" height="41" as="geometry" />
        </mxCell>
        <mxCell id="fiM3ZYcaST_rQ8-QlCLc-57" value="第4天" style="text;html=1;align=center;verticalAlign=middle;resizable=0;points=[];autosize=1;strokeColor=none;fillColor=none;fontSize=24;" vertex="1" parent="1">
          <mxGeometry x="-8" y="932.5" width="79" height="41" as="geometry" />
        </mxCell>
        <mxCell id="fiM3ZYcaST_rQ8-QlCLc-58" value="[1,5,2]" style="text;html=1;align=center;verticalAlign=middle;resizable=0;points=[];autosize=1;strokeColor=none;fillColor=none;fontSize=24;" vertex="1" parent="1">
          <mxGeometry x="983" y="914" width="85" height="41" as="geometry" />
        </mxCell>
        <mxCell id="fiM3ZYcaST_rQ8-QlCLc-59" value="0" style="rounded=0;whiteSpace=wrap;html=1;fontSize=30;fillColor=#dae8fc;strokeColor=#6c8ebf;" vertex="1" parent="1">
          <mxGeometry x="116" y="1037" width="70" height="70" as="geometry" />
        </mxCell>
        <mxCell id="fiM3ZYcaST_rQ8-QlCLc-60" value="4" style="rounded=0;whiteSpace=wrap;html=1;fontSize=30;fillColor=#dae8fc;strokeColor=#6c8ebf;" vertex="1" parent="1">
          <mxGeometry x="214" y="1037" width="70" height="70" as="geometry" />
        </mxCell>
        <mxCell id="fiM3ZYcaST_rQ8-QlCLc-61" value="5" style="rounded=0;whiteSpace=wrap;html=1;fontSize=30;fillColor=#dae8fc;strokeColor=#6c8ebf;" vertex="1" parent="1">
          <mxGeometry x="312" y="1037" width="70" height="70" as="geometry" />
        </mxCell>
        <mxCell id="fiM3ZYcaST_rQ8-QlCLc-62" value="6" style="rounded=0;whiteSpace=wrap;html=1;fontSize=30;fillColor=#dae8fc;strokeColor=#6c8ebf;" vertex="1" parent="1">
          <mxGeometry x="410" y="1037" width="70" height="70" as="geometry" />
        </mxCell>
        <mxCell id="fiM3ZYcaST_rQ8-QlCLc-63" value="7" style="rounded=0;whiteSpace=wrap;html=1;fontSize=30;fillColor=#dae8fc;strokeColor=#6c8ebf;" vertex="1" parent="1">
          <mxGeometry x="508" y="1037" width="70" height="70" as="geometry" />
        </mxCell>
        <mxCell id="fiM3ZYcaST_rQ8-QlCLc-64" value="8" style="rounded=0;whiteSpace=wrap;html=1;fontSize=30;fillColor=#f8cecc;strokeColor=#b85450;" vertex="1" parent="1">
          <mxGeometry x="606" y="1039" width="70" height="70" as="geometry" />
        </mxCell>
        <mxCell id="fiM3ZYcaST_rQ8-QlCLc-65" value="startIndex = 2" style="text;html=1;align=center;verticalAlign=middle;resizable=0;points=[];autosize=1;strokeColor=none;fillColor=none;fontSize=24;" vertex="1" parent="1">
          <mxGeometry x="799" y="1039" width="164" height="41" as="geometry" />
        </mxCell>
        <mxCell id="fiM3ZYcaST_rQ8-QlCLc-66" value="cost = 1" style="text;html=1;align=center;verticalAlign=middle;resizable=0;points=[];autosize=1;strokeColor=none;fillColor=none;fontSize=24;" vertex="1" parent="1">
          <mxGeometry x="825" y="1080" width="103" height="41" as="geometry" />
        </mxCell>
        <mxCell id="fiM3ZYcaST_rQ8-QlCLc-67" value="第5天" style="text;html=1;align=center;verticalAlign=middle;resizable=0;points=[];autosize=1;strokeColor=none;fillColor=none;fontSize=24;" vertex="1" parent="1">
          <mxGeometry x="-8" y="1051.5" width="79" height="41" as="geometry" />
        </mxCell>
        <mxCell id="fiM3ZYcaST_rQ8-QlCLc-68" value="[5,2,1]" style="text;html=1;align=center;verticalAlign=middle;resizable=0;points=[];autosize=1;strokeColor=none;fillColor=none;fontSize=24;" vertex="1" parent="1">
          <mxGeometry x="983" y="1037" width="85" height="41" as="geometry" />
        </mxCell>
        <mxCell id="fiM3ZYcaST_rQ8-QlCLc-69" value="0" style="rounded=0;whiteSpace=wrap;html=1;fontSize=30;fillColor=#dae8fc;strokeColor=#6c8ebf;" vertex="1" parent="1">
          <mxGeometry x="118" y="1149" width="70" height="70" as="geometry" />
        </mxCell>
        <mxCell id="fiM3ZYcaST_rQ8-QlCLc-70" value="4" style="rounded=0;whiteSpace=wrap;html=1;fontSize=30;fillColor=#dae8fc;strokeColor=#6c8ebf;" vertex="1" parent="1">
          <mxGeometry x="216" y="1149" width="70" height="70" as="geometry" />
        </mxCell>
        <mxCell id="fiM3ZYcaST_rQ8-QlCLc-71" value="5" style="rounded=0;whiteSpace=wrap;html=1;fontSize=30;fillColor=#dae8fc;strokeColor=#6c8ebf;" vertex="1" parent="1">
          <mxGeometry x="314" y="1149" width="70" height="70" as="geometry" />
        </mxCell>
        <mxCell id="fiM3ZYcaST_rQ8-QlCLc-72" value="6" style="rounded=0;whiteSpace=wrap;html=1;fontSize=30;fillColor=#dae8fc;strokeColor=#6c8ebf;" vertex="1" parent="1">
          <mxGeometry x="412" y="1149" width="70" height="70" as="geometry" />
        </mxCell>
        <mxCell id="fiM3ZYcaST_rQ8-QlCLc-73" value="7" style="rounded=0;whiteSpace=wrap;html=1;fontSize=30;fillColor=#dae8fc;strokeColor=#6c8ebf;" vertex="1" parent="1">
          <mxGeometry x="510" y="1149" width="70" height="70" as="geometry" />
        </mxCell>
        <mxCell id="fiM3ZYcaST_rQ8-QlCLc-74" value="8" style="rounded=0;whiteSpace=wrap;html=1;fontSize=30;fillColor=#dae8fc;strokeColor=#6c8ebf;" vertex="1" parent="1">
          <mxGeometry x="608" y="1151" width="70" height="70" as="geometry" />
        </mxCell>
        <mxCell id="fiM3ZYcaST_rQ8-QlCLc-75" value="startIndex = 3" style="text;html=1;align=center;verticalAlign=middle;resizable=0;points=[];autosize=1;strokeColor=none;fillColor=none;fontSize=24;" vertex="1" parent="1">
          <mxGeometry x="801" y="1151" width="164" height="41" as="geometry" />
        </mxCell>
        <mxCell id="fiM3ZYcaST_rQ8-QlCLc-76" value="cost = 1" style="text;html=1;align=center;verticalAlign=middle;resizable=0;points=[];autosize=1;strokeColor=none;fillColor=none;fontSize=24;" vertex="1" parent="1">
          <mxGeometry x="829.5" y="1190" width="103" height="41" as="geometry" />
        </mxCell>
        <mxCell id="fiM3ZYcaST_rQ8-QlCLc-77" value="第6天" style="text;html=1;align=center;verticalAlign=middle;resizable=0;points=[];autosize=1;strokeColor=none;fillColor=none;fontSize=24;" vertex="1" parent="1">
          <mxGeometry x="-6" y="1163.5" width="79" height="41" as="geometry" />
        </mxCell>
        <mxCell id="fiM3ZYcaST_rQ8-QlCLc-78" value="[2,1,3]" style="text;html=1;align=center;verticalAlign=middle;resizable=0;points=[];autosize=1;strokeColor=none;fillColor=none;fontSize=24;" vertex="1" parent="1">
          <mxGeometry x="983" y="1149" width="85" height="41" as="geometry" />
        </mxCell>
        <mxCell id="fiM3ZYcaST_rQ8-QlCLc-89" value="x" style="rounded=0;whiteSpace=wrap;html=1;fontSize=30;" vertex="1" parent="1">
          <mxGeometry x="706" y="458" width="70" height="70" as="geometry" />
        </mxCell>
        <mxCell id="fiM3ZYcaST_rQ8-QlCLc-90" value="x" style="rounded=0;whiteSpace=wrap;html=1;fontSize=30;" vertex="1" parent="1">
          <mxGeometry x="706" y="575" width="70" height="70" as="geometry" />
        </mxCell>
        <mxCell id="fiM3ZYcaST_rQ8-QlCLc-91" value="x" style="rounded=0;whiteSpace=wrap;html=1;fontSize=30;" vertex="1" parent="1">
          <mxGeometry x="706" y="683" width="70" height="70" as="geometry" />
        </mxCell>
        <mxCell id="fiM3ZYcaST_rQ8-QlCLc-92" value="x" style="rounded=0;whiteSpace=wrap;html=1;fontSize=30;" vertex="1" parent="1">
          <mxGeometry x="706" y="807" width="70" height="70" as="geometry" />
        </mxCell>
        <mxCell id="fiM3ZYcaST_rQ8-QlCLc-93" value="x" style="rounded=0;whiteSpace=wrap;html=1;fontSize=30;" vertex="1" parent="1">
          <mxGeometry x="706" y="920" width="70" height="70" as="geometry" />
        </mxCell>
        <mxCell id="fiM3ZYcaST_rQ8-QlCLc-94" value="x" style="rounded=0;whiteSpace=wrap;html=1;fontSize=30;" vertex="1" parent="1">
          <mxGeometry x="706" y="1039" width="70" height="70" as="geometry" />
        </mxCell>
        <mxCell id="fiM3ZYcaST_rQ8-QlCLc-95" value="9" style="rounded=0;whiteSpace=wrap;html=1;fontSize=30;fillColor=#f8cecc;strokeColor=#b85450;" vertex="1" parent="1">
          <mxGeometry x="708" y="1151" width="70" height="70" as="geometry" />
        </mxCell>
      </root>
    </mxGraphModel>
  </diagram>
</mxfile>
